<svg xmlns="http://www.w3.org/2000/svg" viewBox="0 0 100 100">
  <defs>
    <linearGradient id="cloudGradient" x1="0%" y1="0%" x2="100%" y2="100%">
      <stop offset="0%" style="stop-color:#ff9900"/>
      <stop offset="100%" style="stop-color:#e68a00"/>
    </linearGradient>
  </defs>
  <!-- Cloud shape -->
  <path fill="url(#cloudGradient)" d="M80 45c0-11-9-20-20-20-8 0-15 5-18 12-2-1-4-2-7-2-8 0-15 7-15 15 0 1 0 2 0 3-6 2-10 8-10 15 0 9 7 16 16 16h52c8 0 14-6 14-14 0-7-5-13-12-14v-11z"/>
  <!-- AWS text -->
  <text x="50" y="58" font-family="Arial, sans-serif" font-size="14" font-weight="bold" fill="#232f3e" text-anchor="middle">AWS</text>
</svg>
